<?xml version="1.0" encoding="utf-8"?>
<!DOCTYPE svg PUBLIC "-//W3C//DTD SVG 1.1//EN" "http://www.w3.org/Graphics/SVG/1.1/DTD/svg11.dtd">
<svg version="1.1" id="Layer_1" xmlns="http://www.w3.org/2000/svg" xmlns:xlink="http://www.w3.org/1999/xlink" x="0px" y="0px"
width="100px" height="100px" viewBox="346 256 100 100" enable-background="new 346 256 100 100" xml:space="preserve">
<g>
<g>
<path fill="#FFFFFF" d="M423.202,270.874c-2.479-2.479-6.534-2.479-9.011,0L396.165,288.9l-18.026-18.026
c-2.478-2.479-6.534-2.479-9.012,0l-9.012,9.012c-2.479,2.48-2.479,6.535,0,9.013l18.024,18.026l-18.024,18.025
c-2.479,2.478-2.479,6.532,0,9.011l9.012,9.013c2.478,2.479,6.535,2.479,9.012,0l18.026-18.024l18.026,18.025
c2.477,2.479,6.532,2.479,9.011,0l9.014-9.012c2.478-2.479,2.478-6.533,0-9.013l-18.024-18.024l18.025-18.026
c2.478-2.479,2.478-6.534,0-9.013L423.202,270.874z"/>
</g>
</g>
</svg>
