<?xml version="1.0" encoding="utf-8"?>
<!DOCTYPE svg PUBLIC "-//W3C//DTD SVG 1.1//EN" "http://www.w3.org/Graphics/SVG/1.1/DTD/svg11.dtd">
<svg version="1.1" id="Layer_1" xmlns:sketch="http://www.bohemiancoding.com/sketch/ns"
	 xmlns="http://www.w3.org/2000/svg" xmlns:xlink="http://www.w3.org/1999/xlink" x="0px" y="0px" width="100px" height="100px"
	 viewBox="346 562 100 100" enable-background="new 346 562 100 100" xml:space="preserve">
<title>Closed Eye</title>
<description>Created with Sketch (http://www.bohemiancoding.com/sketch)</description>
<g>
	<g>
		<g>
			<path fill="#FFFFFF" d="M396.057,636.367c25.106,0,44.954-24.411,44.954-24.411s-19.848-27.063-44.954-27.063
				c-25.106,0-44.954,27.063-44.954,27.063S370.951,636.367,396.057,636.367z"/>
			<path fill="#FFFFFF" d="M359.592,627.249l-6.46,9.637l4.613,3.374l6.46-9.637L359.592,627.249z"/>
			<path fill="#FFFFFF" d="M426.344,630.623l6.46,9.637l4.614-3.374l-6.461-9.637L426.344,630.623z"/>
			<path fill="#FFFFFF" d="M392.836,640.19v11.763h5.631V640.19H392.836z"/>
			<path fill="#FFFFFF" d="M410.857,637.986l3.667,11.123l5.324-1.914l-3.667-11.123L410.857,637.986z"/>
			<path fill="#FFFFFF" d="M375.921,636.109l-3.667,11.123l5.325,1.916l3.667-11.124L375.921,636.109z"/>
		</g>
	</g>
</g>
<title>Slice 1</title>
<description>Created with Sketch (http://www.bohemiancoding.com/sketch)</description>
</svg>