<?xml version="1.0" encoding="utf-8"?>
<!-- Generator: Adobe Illustrator 16.0.0, SVG Export Plug-In . SVG Version: 6.00 Build 0)  -->
<!DOCTYPE svg PUBLIC "-//W3C//DTD SVG 1.1//EN" "http://www.w3.org/Graphics/SVG/1.1/DTD/svg11.dtd">
<svg version="1.1" id="Layer_1" xmlns="http://www.w3.org/2000/svg" xmlns:xlink="http://www.w3.org/1999/xlink" x="0px" y="0px"
	 width="100px" height="100px" viewBox="346 256 100 100" enable-background="new 346 256 100 100" xml:space="preserve">
<path fill="#FFFFFF" d="M376.63,350.293l-18.849-70.324c-0.521-1.94,0.625-3.931,2.573-4.457l0,0
	c1.942-0.518,3.931,0.635,4.457,2.579l0,0l18.842,70.324c0.524,1.937-0.625,3.933-2.564,4.462l0,0
	C379.138,353.393,377.154,352.234,376.63,350.293L376.63,350.293z"/>
<path fill="#FFFFFF" d="M430.877,288.531c-1.04-3.869-2.012-7.469-3.043-11.346c-1.035-3.878-2.154-8.027-3.49-13.01
	c-3.619,3.858-7.376,5.504-11.041,6.423c-3.673,0.926-7.261,1.051-10.812,1.007c-3.553-0.035-7.062-0.261-10.608-0.298
	c-3.556-0.042-7.15,0.08-10.818,1.002c-3.667,0.917-7.419,2.562-11.039,6.425c1.331,4.981,2.452,9.13,3.485,13.008
	c1.041,3.875,1.996,7.472,3.042,11.345c1.043,3.879,2.154,8.036,3.49,13.017c3.619-3.858,7.367-5.504,11.039-6.42
	c3.66-0.918,7.256-1.051,10.806-1.021c3.556,0.038,7.065,0.271,10.616,0.318c3.542,0.042,7.155-0.095,10.82-1.012
	c3.661-0.923,7.412-2.567,11.029-6.415C433.028,296.561,431.909,292.416,430.877,288.531z"/>
</svg>
