<?xml version="1.0" encoding="utf-8"?>
<!DOCTYPE svg PUBLIC "-//W3C//DTD SVG 1.1//EN" "http://www.w3.org/Graphics/SVG/1.1/DTD/svg11.dtd">
<svg version="1.1" id="Layer_1" xmlns="http://www.w3.org/2000/svg" xmlns:xlink="http://www.w3.org/1999/xlink" x="0px" y="0px"
width="100px" height="100px" viewBox="346 256 100 100" enable-background="new 346 256 100 100" xml:space="preserve">
<g>
<path fill="#efbb74" d="M430.131,317.857c-0.449,0.061-0.896,0.107-1.322,0.17c-3.29,0.487-5.368,1.252-7.674,2.824
c-0.799,0.553-1.558,1.137-2.372,1.765c-2.41,1.864-5.128,3.975-8.927,4.739c-2.453,0.496-4.643,0.744-6.685,0.744
c-3.729,0-7.031-0.799-10.09-2.445c-1.808-0.971-3.463-2.099-5.073-3.192c-3.463-2.354-6.449-4.388-9.995-4.388
c-0.248,0-0.505,0.01-0.763,0.027c-1.314,0.111-2.732,0.686-4.226,1.288c-2.066,0.837-4.416,1.78-7.148,1.78
c-0.579,0-1.158-0.041-1.724-0.124c-0.571-0.088-1.109-0.211-1.624-0.358l3.371,20.07c0,5.671,14.151,10.273,31.606,10.273
c17.458,0,31.61-4.604,31.61-10.273l3.923-23.342C432.004,317.633,431.01,317.757,430.131,317.857z"/>
<path fill="#EF52AC" d="M412.793,273.388c-0.262,8.292-7.073,13.964-15.431,13.964c-8.403,0-15.247-5.738-15.44-14.092
c-15.977,3.608-33.256,13.016-27.759,30.534c0.589,1.876,1.108,3.669,2.227,5.321c2.171,3.192,4.272,5.979,8.279,6.577
c4.42,0.668,7.951-2.62,12.279-2.966c7.166-0.577,11.98,4.835,17.804,7.962c4.576,2.455,9.419,2.354,14.377,1.352
c4.062-0.827,6.673-3.693,9.999-5.96c2.965-2.024,5.678-2.889,9.155-3.404c2.723-0.398,5.965-0.373,7.915-2.57
c2.949-3.315,3.564-8.533,3.564-12.79C439.763,286.487,428.604,277.224,412.793,273.388z"/>
<path fill="#ff1c53" d="M408.336,271.071c0,6.059-4.912,10.971-10.974,10.971c-6.062,0-10.979-4.912-10.979-10.971
c0-6.066,4.917-10.98,10.979-10.98C403.424,260.091,408.336,265.005,408.336,271.071z"/>
</g>
</svg>