<?xml version="1.0" encoding="utf-8"?>
<!-- Generator: Adobe Illustrator 16.0.0, SVG Export Plug-In . SVG Version: 6.00 Build 0)  -->
<!DOCTYPE svg PUBLIC "-//W3C//DTD SVG 1.1//EN" "http://www.w3.org/Graphics/SVG/1.1/DTD/svg11.dtd">
<svg version="1.1" id="Layer_1" xmlns="http://www.w3.org/2000/svg" xmlns:xlink="http://www.w3.org/1999/xlink" x="0px" y="0px"
width="792px" height="1224px" viewBox="0 0 792 1224" enable-background="new 0 0 792 1224" xml:space="preserve">
<path fill="#FFFFFF" d="M247.812,662.227l29.829,291.645L46.994,773.001l41.454-22.833c-19.39-43.843-29.565-90.89-29.565-137.043
c-0.008-189.123,153.896-342.997,343.065-342.997c189.178,0,343.059,153.874,343.059,342.997c0,51.505-11.921,101.956-35.46,149.94
l-8.282,16.907L591.785,719.54l7.073-15.192c13.665-29.309,20.6-60.007,20.6-91.216c0-119.888-97.583-217.431-217.51-217.431
c-119.926,0-217.493,97.543-217.493,217.431c0,25.804,4.816,51.344,14.364,76.146L247.812,662.227z"/>
</svg>