<?xml version="1.0" encoding="utf-8"?>
<!-- Generator: Adobe Illustrator 16.0.0, SVG Export Plug-In . SVG Version: 6.00 Build 0)  -->
<!DOCTYPE svg PUBLIC "-//W3C//DTD SVG 1.1//EN" "http://www.w3.org/Graphics/SVG/1.1/DTD/svg11.dtd">
<svg version="1.1" id="Layer_1" xmlns="http://www.w3.org/2000/svg" xmlns:xlink="http://www.w3.org/1999/xlink" x="0px" y="0px"
width="792px" height="1224px" viewBox="0 0 792 1224" enable-background="new 0 0 792 1224" xml:space="preserve">
<path fill="#FFFFFF" d="M542.898,661.786l-29.566,289.101l228.62-179.303l-41.084-22.633c19.22-43.451,29.307-90.094,29.307-135.836
c0-187.468-152.565-339.994-340.063-339.994C202.582,273.113,50.048,425.64,50.048,613.115c0,51.055,11.816,101.063,35.157,148.628
l8.21,16.768l108.513-59.904l-7.003-15.06c-13.554-29.06-20.419-59.488-20.419-90.417c0-118.839,96.729-215.528,215.605-215.528
s215.59,96.689,215.59,215.528c0,25.577-4.774,50.894-14.238,75.479L542.898,661.786z"/>
</svg>