<?xml version="1.0" encoding="utf-8"?>
<!DOCTYPE svg PUBLIC "-//W3C//DTD SVG 1.1//EN" "http://www.w3.org/Graphics/SVG/1.1/DTD/svg11.dtd">
<svg version="1.1" id="Layer_1" xmlns="http://www.w3.org/2000/svg" xmlns:xlink="http://www.w3.org/1999/xlink" x="0px" y="0px"
width="792px" height="1224px" viewBox="0 -306 792 1224" enable-background="new 0 -306 792 1224" xml:space="preserve">
<g>
<path fill="#FFEF00" d="M786.379,579.294V11.17c0-4.794-12.035-16.737-26.735-16.737H32.363C17.568-5.566,5.626,6.376,5.626,11.17
v568.124c0,24.702,11.941,36.734,26.736,36.734h727.281C774.344,616.028,786.379,603.996,786.379,579.294z M79.704,541.951V68.512
h267.222v23.883c0,9.892,39.229,39.034,49.034,39.034c9.891,0,49.034-29.143,49.034-39.034V68.512h267.309v473.439H444.986v-23.968
c0-9.808-39.144-49.033-49.034-49.033c-9.807,0-49.034,39.226-49.034,49.033v23.968H79.704z"/>
</g>
<g>
<g>
<path fill="#FFEF00" d="M346.943,352.508v-99.513c0-9.841,39.194-49.034,49.035-49.034c9.841,0,49.033,39.193,49.033,49.034
v99.513c0,9.841-39.191,49.035-49.033,49.035C386.137,401.543,346.943,362.349,346.943,352.508z"/>
</g>
</g>
</svg>
