<?xml version="1.0" encoding="utf-8"?>
<!-- Generator: Adobe Illustrator 16.0.0, SVG Export Plug-In . SVG Version: 6.00 Build 0)  -->
<!DOCTYPE svg PUBLIC "-//W3C//DTD SVG 1.1//EN" "http://www.w3.org/Graphics/SVG/1.1/DTD/svg11.dtd">
<svg version="1.1" id="Layer_1" xmlns="http://www.w3.org/2000/svg" xmlns:xlink="http://www.w3.org/1999/xlink" x="0px" y="0px"
width="792px" height="1224px" viewBox="0 0 792 1224" enable-background="new 0 0 792 1224" xml:space="preserve">
<g>
<path fill="#FFFFFF" d="M497.665,642.267c25.989-39.413,41.134-86.622,41.134-137.365c0-138.015-111.891-249.897-249.897-249.897
c-138.015,0-249.897,111.883-249.897,249.897s111.883,249.897,249.897,249.897c50.743,0,97.952-15.145,137.365-41.134
l255.33,255.331l71.399-71.399L497.665,642.267z M288.901,683.399c-98.424,0-178.498-80.075-178.498-178.498
c0-98.424,80.074-178.498,178.498-178.498c98.423,0,178.498,80.074,178.498,178.498
C467.399,603.325,387.325,683.399,288.901,683.399z"/>
<polygon fill="#FFFFFF" points="324.601,397.802 253.202,397.802 253.202,469.201 181.802,469.201 181.802,540.601 
253.202,540.601 253.202,612 324.601,612 324.601,540.601 396,540.601 396,469.201 324.601,469.201 	"/>
</g>
</svg>