<?xml version="1.0" encoding="utf-8"?>
<!DOCTYPE svg PUBLIC "-//W3C//DTD SVG 1.1//EN" "http://www.w3.org/Graphics/SVG/1.1/DTD/svg11.dtd">
<svg version="1.1" id="Layer_1" xmlns="http://www.w3.org/2000/svg" xmlns:xlink="http://www.w3.org/1999/xlink" x="0px" y="0px"
width="792px" height="1224px" viewBox="0 0 792 1224" enable-background="new 0 0 792 1224" xml:space="preserve">
<g>
<path fill="#FFEF00" d="M495.636,641.26c25.991-39.404,41.131-86.603,41.131-137.334c0-137.985-111.857-249.843-249.842-249.843
c-137.984,0-249.842,111.858-249.842,249.843c0,137.983,111.858,249.841,249.842,249.841c50.725,0,97.924-15.133,137.335-41.124
l255.274,255.274l71.383-71.383L495.636,641.26z M286.924,682.385c-98.401,0-178.458-80.059-178.458-178.459
c0-98.403,80.057-178.46,178.458-178.46c98.402,0,178.46,80.057,178.46,178.46C465.385,602.326,385.326,682.385,286.924,682.385z"/>
<rect x="179.849" y="468.233" fill="#FFEF00" width="214.151" height="71.384"/>
</g>
</svg>